<?xml version="1.0" encoding="UTF-8"?>
<svg xmlns="http://www.w3.org/2000/svg" viewBox="0 0 400 300">
  <defs>
    <linearGradient id="bgp" x1="0%" y1="0%" x2="100%" y2="100%">
      <stop offset="0%" style="stop-color:#0b0e14"/>
      <stop offset="100%" style="stop-color:#121826"/>
    </linearGradient>
  </defs>

  <rect width="400" height="300" fill="url(#bgp)"/>

  <text x="200" y="25" fill="#e6edf3" font-family="system-ui" font-size="12" font-weight="600" text-anchor="middle">
    CT Crypto 2D Proof Map (Preview)
  </text>

  <!-- Simulated UMAP clusters -->
  <!-- Modality cluster (blue) -->
  <circle cx="80" cy="100" r="12" fill="rgba(122, 162, 247, 0.4)" stroke="#7aa2f7" stroke-width="1"/>
  <circle cx="100" cy="85" r="10" fill="rgba(122, 162, 247, 0.4)" stroke="#7aa2f7" stroke-width="1"/>
  <circle cx="120" cy="110" r="14" fill="rgba(122, 162, 247, 0.4)" stroke="#7aa2f7" stroke-width="1"/>
  <circle cx="95" cy="125" r="8" fill="rgba(122, 162, 247, 0.4)" stroke="#7aa2f7" stroke-width="1"/>

  <!-- Task cluster (red) -->
  <circle cx="200" cy="150" r="15" fill="rgba(247, 118, 142, 0.4)" stroke="#f7768e" stroke-width="1"/>
  <circle cx="220" cy="135" r="12" fill="rgba(247, 118, 142, 0.4)" stroke="#f7768e" stroke-width="1"/>
  <circle cx="240" cy="160" r="10" fill="rgba(247, 118, 142, 0.4)" stroke="#f7768e" stroke-width="1"/>
  <circle cx="225" cy="175" r="8" fill="rgba(247, 118, 142, 0.4)" stroke="#f7768e" stroke-width="1"/>
  <circle cx="185" cy="165" r="11" fill="rgba(247, 118, 142, 0.4)" stroke="#f7768e" stroke-width="1"/>

  <!-- Security cluster (green) -->
  <circle cx="320" cy="200" r="16" fill="rgba(158, 206, 106, 0.4)" stroke="#9ece6a" stroke-width="1.5"/>
  <circle cx="340" cy="185" r="12" fill="rgba(158, 206, 106, 0.4)" stroke="#9ece6a" stroke-width="1"/>
  <circle cx="300" cy="220" r="10" fill="rgba(158, 206, 106, 0.4)" stroke="#9ece6a" stroke-width="1"/>
  <circle cx="335" cy="225" r="9" fill="rgba(158, 206, 106, 0.4)" stroke="#9ece6a" stroke-width="1"/>

  <!-- Contextuality cluster -->
  <circle cx="150" cy="200" r="11" fill="rgba(122, 162, 247, 0.4)" stroke="#7aa2f7" stroke-width="1"/>
  <circle cx="165" cy="220" r="9" fill="rgba(122, 162, 247, 0.4)" stroke="#7aa2f7" stroke-width="1"/>
  <circle cx="135" cy="215" r="10" fill="rgba(122, 162, 247, 0.4)" stroke="#7aa2f7" stroke-width="1"/>

  <!-- kNN edges -->
  <line x1="120" y1="110" x2="200" y2="150" stroke="rgba(230,237,243,0.15)" stroke-width="0.5"/>
  <line x1="150" y1="200" x2="200" y2="150" stroke="rgba(230,237,243,0.15)" stroke-width="0.5"/>
  <line x1="240" y1="160" x2="320" y2="200" stroke="rgba(230,237,243,0.15)" stroke-width="0.5"/>
  <line x1="100" y1="85" x2="150" y2="200" stroke="rgba(230,237,243,0.15)" stroke-width="0.5"/>

  <!-- Legend -->
  <rect x="15" y="255" width="10" height="10" fill="rgba(122, 162, 247, 0.4)" stroke="#7aa2f7"/>
  <text x="30" y="264" fill="#9aa4b2" font-family="system-ui" font-size="9">Modality</text>

  <rect x="100" y="255" width="10" height="10" fill="rgba(247, 118, 142, 0.4)" stroke="#f7768e"/>
  <text x="115" y="264" fill="#9aa4b2" font-family="system-ui" font-size="9">Task</text>

  <rect x="170" y="255" width="10" height="10" fill="rgba(158, 206, 106, 0.4)" stroke="#9ece6a"/>
  <text x="185" y="264" fill="#9aa4b2" font-family="system-ui" font-size="9">Security</text>

  <text x="200" y="285" fill="#9aa4b2" font-family="system-ui" font-size="8" text-anchor="middle">
    Click for interactive 2D viewer
  </text>
</svg>
